<svg width="26" height="20" viewBox="0 0 26 20" xmlns="http://www.w3.org/2000/svg">
<path d="M2.27734 20C1.70516 20 1.20938 19.811 0.787907 19.438L7.99957 12.2261C8.17259 12.35 8.3403 12.4704 8.49872 12.585C9.03841 12.9826 9.47643 13.2929 9.81278 13.5153C10.1491 13.7381 10.5965 13.9652 11.1551 14.1971C11.714 14.4293 12.2347 14.545 12.7177 14.545H12.7318H12.746C13.2291 14.545 13.7498 14.4294 14.3086 14.1971C14.8675 13.9652 15.3149 13.7381 15.6509 13.5153C15.9872 13.2929 16.425 12.9827 16.965 12.585C17.1154 12.4747 17.2823 12.3537 17.4627 12.2241L24.6758 19.438C24.2544 19.811 23.7582 20 23.1861 20H2.27734Z"/>
<path d="M24.0222 7.68468C24.5619 7.3249 25.0404 6.91286 25.457 6.44873V17.4211L19.1007 11.0648C20.3723 10.177 22.0108 9.0516 24.0222 7.68468Z"/>
<path d="M1.42211 7.68468C3.35687 8.9942 5.00126 10.1215 6.35547 11.0673L0.00167894 17.4214V6.44873C0.409056 6.90352 0.882472 7.31529 1.42211 7.68468Z"/>
<path d="M2.27572 0H23.1845C23.9139 0 24.4747 0.246321 24.8676 0.738455C25.2608 1.23082 25.457 1.84658 25.457 2.58503C25.457 3.18152 25.1966 3.82782 24.6759 4.52413C24.1552 5.22016 23.6011 5.76687 23.014 6.16454C22.6921 6.39196 21.7214 7.06678 20.1019 8.18877C19.2277 8.79459 18.4674 9.32263 17.8141 9.7783C17.2572 10.1663 16.777 10.5023 16.3804 10.7812C16.3349 10.8131 16.2633 10.8643 16.1683 10.9323C16.066 11.0058 15.9364 11.0991 15.7766 11.2145C15.4689 11.4371 15.2132 11.617 15.0096 11.7544C14.8063 11.8919 14.5599 12.0455 14.2709 12.216C13.9821 12.3863 13.7097 12.5144 13.454 12.5995C13.1983 12.6847 12.9616 12.7274 12.7439 12.7274H12.7297H12.7156C12.4979 12.7274 12.2611 12.6847 12.0054 12.5995C11.7497 12.5144 11.4776 12.3866 11.1886 12.216C10.8998 12.0455 10.6538 11.8916 10.4498 11.7544C10.2462 11.617 9.99052 11.4371 9.68273 11.2145C9.52325 11.0991 9.39371 11.0057 9.29135 10.9325C9.19628 10.8643 9.12474 10.8134 9.07895 10.7812C8.77005 10.5663 8.28868 10.2316 7.6415 9.78223C6.46387 8.96401 4.72955 7.75972 2.43123 6.16454C1.74001 5.68175 1.16252 5.09912 0.698387 4.41751C0.235092 3.7359 0.00282097 3.02092 0.00282097 2.27281C0.00282097 1.64776 0.228022 1.11293 0.677452 0.66747C1.12739 0.222567 1.6602 0 2.27572 0Z"/>
</svg>
