<svg width="20" height="20" viewBox="0 0 20 20" xmlns="http://www.w3.org/2000/svg">
<path d="M15.2055 13.2307C14.5521 12.5856 13.7363 12.5856 13.0871 13.2307C12.5918 13.7218 12.0965 14.2129 11.6096 14.7123C11.4764 14.8497 11.364 14.8788 11.2017 14.7872C10.8812 14.6124 10.54 14.4709 10.232 14.2795C8.79613 13.3763 7.59334 12.2152 6.52789 10.9083C5.99932 10.2591 5.52903 9.56404 5.20024 8.7816C5.13365 8.62345 5.14613 8.5194 5.27515 8.39038C5.77042 7.91176 6.2532 7.42065 6.74014 6.92955C7.41854 6.24699 7.41854 5.44791 6.73598 4.76119C6.34893 4.36997 5.96187 3.98708 5.57481 3.59586C5.17527 3.19631 4.77988 2.79261 4.37618 2.39723C3.72276 1.76045 2.90702 1.76045 2.25777 2.40139C1.75834 2.89249 1.27972 3.39609 0.771963 3.87887C0.301666 4.32419 0.0644373 4.8694 0.0144944 5.50617C-0.064582 6.54249 0.189295 7.52054 0.547219 8.47362C1.27972 10.4464 2.39511 12.1985 3.74773 13.805C5.57481 15.9775 7.75565 17.6964 10.3069 18.9367C11.4556 19.4944 12.6459 19.923 13.9403 19.9938C14.8309 20.0437 15.605 19.819 16.2251 19.1239C16.6497 18.6495 17.1283 18.2167 17.5778 17.763C18.2437 17.0888 18.2478 16.273 17.5861 15.6071C16.7953 14.8122 16.0004 14.0214 15.2055 13.2307Z"/>
<path d="M14.4109 9.91385L15.9467 9.65165C15.7053 8.24076 15.0394 6.96305 14.028 5.94754C12.9584 4.87793 11.6058 4.2037 10.1158 3.99561L9.89941 5.53968C11.0523 5.70199 12.1011 6.22223 12.9293 7.05045C13.7117 7.83289 14.2236 8.82342 14.4109 9.91385Z"/>
<path d="M16.8115 3.23797C15.0386 1.46499 12.7953 0.345439 10.319 0L10.1025 1.54407C12.2418 1.84373 14.1812 2.81345 15.7128 4.34088C17.1653 5.79338 18.1184 7.62879 18.4638 9.64732L19.9996 9.38511C19.5959 7.04612 18.493 4.92354 16.8115 3.23797Z"/>
</svg>
