<svg width="54" height="11" viewBox="0 0 54 11" xmlns="http://www.w3.org/2000/svg">
<path fill-rule="evenodd" clip-rule="evenodd" d="M0.431885 10.5453V9.03076C1.07866 9.46765 1.72544 9.67153 2.37222 9.67153C3.04839 9.67153 3.57757 9.49678 3.95976 9.17639C4.37135 8.856 4.57714 8.38998 4.57714 7.83658C4.57714 7.28318 4.37135 6.87542 3.95976 6.55503C3.54817 6.23464 2.9602 6.08901 2.19582 6.08901C1.93123 6.08901 1.43145 6.11813 0.725874 6.17639V1.10842H5.7531V2.44823H2.13702V4.86571C2.43101 4.83658 2.6956 4.83658 2.9602 4.83658C3.98916 4.83658 4.78293 5.09872 5.37091 5.62299C5.92949 6.14726 6.22348 6.87542 6.22348 7.77833C6.22348 8.73949 5.90009 9.49677 5.25331 10.0793C4.60654 10.6618 3.72457 10.9531 2.57801 10.9531C1.63724 10.9531 0.931667 10.8075 0.461284 10.5453H0.431885ZM19.1884 1.10842L16.1603 7.80745C15.6017 9.03076 15.0432 9.84629 14.5434 10.2832C14.0142 10.7201 13.4556 10.9531 12.8382 10.9531C12.3385 10.9531 11.9269 10.8948 11.6035 10.7492V9.20551C11.9857 9.43852 12.3679 9.55503 12.75 9.55503C13.0734 9.55503 13.3674 9.43852 13.632 9.20551C13.8966 8.9725 14.1906 8.53561 14.514 7.92396L11.2507 1.13755H13.1028L15.102 5.71037C15.1314 5.79775 15.2196 6.03076 15.3372 6.4094C15.3372 6.35114 15.4254 6.11813 15.6017 5.71037L17.5127 1.13755H19.2178L19.1884 1.10842ZM25.7444 2.53561H21.9519V10.8075H20.335V1.13755H25.7444V2.53561ZM33.8879 10.8075V1.13755H28.5667C28.2727 3.43852 27.9787 5.27347 27.7435 6.61328C27.4789 7.95309 27.2437 8.79775 27.0085 9.11813C26.7733 9.43852 26.5088 9.58415 26.2442 9.58415C25.9796 9.58415 25.7444 9.5259 25.5092 9.4094V10.7783C25.8032 10.8948 26.156 10.924 26.5382 10.924C27.0085 10.924 27.4201 10.8075 27.7435 10.5744C28.0669 10.3414 28.3315 10.021 28.5373 9.55503C28.7431 9.08901 28.9195 8.38998 29.1253 7.42881C29.3017 6.46765 29.5662 4.80745 29.919 2.47736H32.3004V10.7492H33.9173L33.8879 10.8075ZM40.3557 10.924C38.9445 10.924 37.8274 10.4871 36.9748 9.55503C36.1222 8.65211 35.7106 7.48707 35.7106 6.03076C35.7106 4.48707 36.1516 3.23464 37.0042 2.3026C37.8568 1.37056 39.0327 0.904541 40.5027 0.904541C41.8844 0.904541 42.9722 1.34143 43.8247 2.24435C44.6479 3.14726 45.0889 4.31231 45.0889 5.76862C45.0889 7.34144 44.6479 8.59386 43.7953 9.49677C42.9428 10.3997 41.7962 10.924 40.3557 10.924ZM40.4439 2.3026C39.5619 2.3026 38.8269 2.62299 38.2683 3.29289C37.7098 3.96279 37.4158 4.83658 37.4158 5.91425C37.4158 6.99192 37.6804 7.86571 38.2389 8.50648C38.7681 9.17639 39.5031 9.49677 40.3851 9.49677C41.3258 9.49677 42.0608 9.17639 42.59 8.56474C43.1192 7.95309 43.4132 7.0793 43.4132 5.94338C43.4132 4.77833 43.1486 3.90454 42.6194 3.26376C42.0902 2.62299 41.3846 2.33173 40.4439 2.33173V2.3026ZM46.8822 10.7492V1.0793H49.9691C50.9099 1.0793 51.6449 1.28318 52.2034 1.69095C52.762 2.09872 53.0266 2.62299 53.0266 3.29289C53.0266 3.84629 52.8796 4.31231 52.5562 4.72008C52.2328 5.12784 51.8213 5.4191 51.2627 5.59386V5.62299C51.9389 5.71037 52.468 5.94338 52.8796 6.35114C53.2912 6.75891 53.4676 7.31231 53.4676 7.98221C53.4676 8.79775 53.1442 9.46765 52.4974 9.99192C51.8507 10.5162 50.9981 10.7492 49.9985 10.7492H46.8822ZM48.4992 2.36085V5.09872H49.5575C50.1161 5.09872 50.5571 4.95308 50.8805 4.69095C51.2039 4.42881 51.3509 4.05017 51.3509 3.58415C51.3509 2.76862 50.7923 2.33173 49.6751 2.33173H48.4992V2.36085ZM48.4992 6.38027V9.43852H49.8809C50.4689 9.43852 50.9393 9.29289 51.2921 9.03076C51.6155 8.76862 51.7919 8.36085 51.7919 7.89483C51.7919 6.90454 51.0863 6.38027 49.7045 6.38027H48.5286H48.4992Z"/>
</svg>
