<svg width="22" height="22" viewBox="0 0 22 22" fill="none" xmlns="http://www.w3.org/2000/svg">
<path fill-rule="evenodd" clip-rule="evenodd" d="M8.6139 17.691L8.5845 17.6327L0 12.2444L3.05749 10.0308L5.5858 0.244385L8.6433 2.45798L18.8447 1.8172L17.6688 5.3706L21.4318 14.7784H17.6394L17.61 14.8075L9.76046 21.2444L8.6139 17.691Z" fill="white"/>
<path fill-rule="evenodd" clip-rule="evenodd" d="M8.61402 17.6029V17.6612L14.5526 14.7485L15.6698 14.7777H17.6101H17.6395L17.5219 13.9039L16.6987 8.28252L17.6689 5.39902H17.6395L17.5513 5.3699L11.1423 4.2631L8.64342 2.45728V2.4864L7.87905 3.88446L5.55653 8.25339L3.17521 9.97184L3.05762 10.0592L7.67325 14.7485L8.61402 17.6029Z" fill="#00AEEF"/>
</svg>
